<?xml version="1.0" standalone="no"?>
<svg xmlns:xlink="http://www.w3.org/1999/xlink" id="wave" style="transform:rotate(180deg); transition: 0.3s" viewBox="0 0 1440 120" version="1.1" xmlns="http://www.w3.org/2000/svg"><defs><linearGradient id="sw-gradient-0" x1="0" x2="0" y1="1" y2="0"><stop stop-color="rgba(245, 239, 235, 1)" offset="0%"/><stop stop-color="rgba(245, 239, 235, 1)" offset="100%"/></linearGradient></defs><path style="transform:translate(0, 0px); opacity:1" fill="url(#sw-gradient-0)" d="M0,60L26.7,50C53.3,40,107,20,160,26C213.3,32,267,64,320,66C373.3,68,427,40,480,30C533.3,20,587,28,640,42C693.3,56,747,76,800,82C853.3,88,907,80,960,64C1013.3,48,1067,24,1120,28C1173.3,32,1227,64,1280,78C1333.3,92,1387,88,1440,76C1493.3,64,1547,44,1600,42C1653.3,40,1707,56,1760,68C1813.3,80,1867,88,1920,82C1973.3,76,2027,56,2080,46C2133.3,36,2187,36,2240,32C2293.3,28,2347,20,2400,28C2453.3,36,2507,60,2560,66C2613.3,72,2667,60,2720,60C2773.3,60,2827,72,2880,80C2933.3,88,2987,92,3040,94C3093.3,96,3147,96,3200,90C3253.3,84,3307,72,3360,56C3413.3,40,3467,20,3520,14C3573.3,8,3627,16,3680,16C3733.3,16,3787,8,3813,4L3840,0L3840,120L3813.3,120C3786.7,120,3733,120,3680,120C3626.7,120,3573,120,3520,120C3466.7,120,3413,120,3360,120C3306.7,120,3253,120,3200,120C3146.7,120,3093,120,3040,120C2986.7,120,2933,120,2880,120C2826.7,120,2773,120,2720,120C2666.7,120,2613,120,2560,120C2506.7,120,2453,120,2400,120C2346.7,120,2293,120,2240,120C2186.7,120,2133,120,2080,120C2026.7,120,1973,120,1920,120C1866.7,120,1813,120,1760,120C1706.7,120,1653,120,1600,120C1546.7,120,1493,120,1440,120C1386.7,120,1333,120,1280,120C1226.7,120,1173,120,1120,120C1066.7,120,1013,120,960,120C906.7,120,853,120,800,120C746.7,120,693,120,640,120C586.7,120,533,120,480,120C426.7,120,373,120,320,120C266.7,120,213,120,160,120C106.7,120,53,120,27,120L0,120Z"/></svg>