<?xml version="1.0" standalone="no"?>
<svg xmlns:xlink="http://www.w3.org/1999/xlink" id="wave" style="transform:rotate(180deg); transition: 0.3s" viewBox="0 0 1440 210" version="1.1" xmlns="http://www.w3.org/2000/svg"><defs><linearGradient id="sw-gradient-0" x1="0" x2="0" y1="1" y2="0"><stop stop-color="rgba(245, 239, 235, 1)" offset="0%"/><stop stop-color="rgba(245, 239, 235, 1)" offset="100%"/></linearGradient></defs><path style="transform:translate(0, 0px); opacity:1" fill="url(#sw-gradient-0)" d="M0,105L26.7,87.5C53.3,70,107,35,160,45.5C213.3,56,267,112,320,115.5C373.3,119,427,70,480,52.5C533.3,35,587,49,640,73.5C693.3,98,747,133,800,143.5C853.3,154,907,140,960,112C1013.3,84,1067,42,1120,49C1173.3,56,1227,112,1280,136.5C1333.3,161,1387,154,1440,133C1493.3,112,1547,77,1600,73.5C1653.3,70,1707,98,1760,119C1813.3,140,1867,154,1920,143.5C1973.3,133,2027,98,2080,80.5C2133.3,63,2187,63,2240,56C2293.3,49,2347,35,2400,49C2453.3,63,2507,105,2560,115.5C2613.3,126,2667,105,2720,105C2773.3,105,2827,126,2880,140C2933.3,154,2987,161,3040,164.5C3093.3,168,3147,168,3200,157.5C3253.3,147,3307,126,3360,98C3413.3,70,3467,35,3520,24.5C3573.3,14,3627,28,3680,28C3733.3,28,3787,14,3813,7L3840,0L3840,210L3813.3,210C3786.7,210,3733,210,3680,210C3626.7,210,3573,210,3520,210C3466.7,210,3413,210,3360,210C3306.7,210,3253,210,3200,210C3146.7,210,3093,210,3040,210C2986.7,210,2933,210,2880,210C2826.7,210,2773,210,2720,210C2666.7,210,2613,210,2560,210C2506.7,210,2453,210,2400,210C2346.7,210,2293,210,2240,210C2186.7,210,2133,210,2080,210C2026.7,210,1973,210,1920,210C1866.7,210,1813,210,1760,210C1706.7,210,1653,210,1600,210C1546.7,210,1493,210,1440,210C1386.7,210,1333,210,1280,210C1226.7,210,1173,210,1120,210C1066.7,210,1013,210,960,210C906.7,210,853,210,800,210C746.7,210,693,210,640,210C586.7,210,533,210,480,210C426.7,210,373,210,320,210C266.7,210,213,210,160,210C106.7,210,53,210,27,210L0,210Z"/></svg>