<?xml version="1.0" standalone="no"?>
<svg xmlns:xlink="http://www.w3.org/1999/xlink" id="wave" style="transform:rotate(0deg); transition: 0.3s" viewBox="0 0 1440 120" version="1.1" xmlns="http://www.w3.org/2000/svg"><defs><linearGradient id="sw-gradient-0" x1="0" x2="0" y1="1" y2="0"><stop stop-color="rgba(245, 239, 235, 1)" offset="0%"/><stop stop-color="rgba(245, 239, 235, 1)" offset="100%"/></linearGradient></defs><path style="transform:translate(0, 0px); opacity:1" fill="url(#sw-gradient-0)" d="M0,24L10.9,30C21.8,36,44,48,65,50C87.3,52,109,44,131,42C152.7,40,175,44,196,42C218.2,40,240,32,262,36C283.6,40,305,56,327,64C349.1,72,371,72,393,74C414.5,76,436,80,458,68C480,56,502,28,524,22C545.5,16,567,32,589,38C610.9,44,633,40,655,34C676.4,28,698,20,720,18C741.8,16,764,20,785,30C807.3,40,829,56,851,60C872.7,64,895,56,916,62C938.2,68,960,88,982,92C1003.6,96,1025,84,1047,84C1069.1,84,1091,96,1113,102C1134.5,108,1156,108,1178,94C1200,80,1222,52,1244,40C1265.5,28,1287,32,1309,44C1330.9,56,1353,76,1375,80C1396.4,84,1418,72,1440,64C1461.8,56,1484,52,1505,52C1527.3,52,1549,56,1560,58L1570.9,60L1570.9,120L1560,120C1549.1,120,1527,120,1505,120C1483.6,120,1462,120,1440,120C1418.2,120,1396,120,1375,120C1352.7,120,1331,120,1309,120C1287.3,120,1265,120,1244,120C1221.8,120,1200,120,1178,120C1156.4,120,1135,120,1113,120C1090.9,120,1069,120,1047,120C1025.5,120,1004,120,982,120C960,120,938,120,916,120C894.5,120,873,120,851,120C829.1,120,807,120,785,120C763.6,120,742,120,720,120C698.2,120,676,120,655,120C632.7,120,611,120,589,120C567.3,120,545,120,524,120C501.8,120,480,120,458,120C436.4,120,415,120,393,120C370.9,120,349,120,327,120C305.5,120,284,120,262,120C240,120,218,120,196,120C174.5,120,153,120,131,120C109.1,120,87,120,65,120C43.6,120,22,120,11,120L0,120Z"/></svg>