<?xml version="1.0" standalone="no"?>
<svg xmlns:xlink="http://www.w3.org/1999/xlink" id="wave" style="transform:rotate(0deg); transition: 0.3s" viewBox="0 0 1440 120" version="1.1" xmlns="http://www.w3.org/2000/svg"><defs><linearGradient id="sw-gradient-0" x1="0" x2="0" y1="1" y2="0"><stop stop-color="rgba(245, 239, 235, 1)" offset="0%"/><stop stop-color="rgba(245, 239, 235, 1)" offset="100%"/></linearGradient></defs><path style="transform:translate(0, 0px); opacity:1" fill="url(#sw-gradient-0)" d="M0,84L10.9,86C21.8,88,44,92,65,92C87.3,92,109,88,131,80C152.7,72,175,60,196,48C218.2,36,240,24,262,20C283.6,16,305,20,327,18C349.1,16,371,8,393,14C414.5,20,436,40,458,44C480,48,502,36,524,42C545.5,48,567,72,589,78C610.9,84,633,72,655,66C676.4,60,698,60,720,54C741.8,48,764,36,785,34C807.3,32,829,40,851,50C872.7,60,895,72,916,82C938.2,92,960,100,982,88C1003.6,76,1025,44,1047,32C1069.1,20,1091,28,1113,28C1134.5,28,1156,20,1178,28C1200,36,1222,60,1244,74C1265.5,88,1287,92,1309,92C1330.9,92,1353,88,1375,88C1396.4,88,1418,92,1440,94C1461.8,96,1484,96,1505,84C1527.3,72,1549,48,1560,36L1570.9,24L1570.9,120L1560,120C1549.1,120,1527,120,1505,120C1483.6,120,1462,120,1440,120C1418.2,120,1396,120,1375,120C1352.7,120,1331,120,1309,120C1287.3,120,1265,120,1244,120C1221.8,120,1200,120,1178,120C1156.4,120,1135,120,1113,120C1090.9,120,1069,120,1047,120C1025.5,120,1004,120,982,120C960,120,938,120,916,120C894.5,120,873,120,851,120C829.1,120,807,120,785,120C763.6,120,742,120,720,120C698.2,120,676,120,655,120C632.7,120,611,120,589,120C567.3,120,545,120,524,120C501.8,120,480,120,458,120C436.4,120,415,120,393,120C370.9,120,349,120,327,120C305.5,120,284,120,262,120C240,120,218,120,196,120C174.5,120,153,120,131,120C109.1,120,87,120,65,120C43.6,120,22,120,11,120L0,120Z"/></svg>