<?xml version="1.0" standalone="no"?>
<svg xmlns:xlink="http://www.w3.org/1999/xlink" id="wave" style="transform:rotate(0deg); transition: 0.3s" viewBox="0 0 1440 180" version="1.1" xmlns="http://www.w3.org/2000/svg"><defs><linearGradient id="sw-gradient-0" x1="0" x2="0" y1="1" y2="0"><stop stop-color="rgba(243, 106, 62, 1)" offset="0%"/><stop stop-color="rgba(255, 179, 11, 1)" offset="100%"/></linearGradient></defs><path style="transform:translate(0, 0px); opacity:1" fill="url(#sw-gradient-0)" d="M0,126L10.9,129C21.8,132,44,138,65,138C87.3,138,109,132,131,120C152.7,108,175,90,196,72C218.2,54,240,36,262,30C283.6,24,305,30,327,27C349.1,24,371,12,393,21C414.5,30,436,60,458,66C480,72,502,54,524,63C545.5,72,567,108,589,117C610.9,126,633,108,655,99C676.4,90,698,90,720,81C741.8,72,764,54,785,51C807.3,48,829,60,851,75C872.7,90,895,108,916,123C938.2,138,960,150,982,132C1003.6,114,1025,66,1047,48C1069.1,30,1091,42,1113,42C1134.5,42,1156,30,1178,42C1200,54,1222,90,1244,111C1265.5,132,1287,138,1309,138C1330.9,138,1353,132,1375,132C1396.4,132,1418,138,1440,141C1461.8,144,1484,144,1505,126C1527.3,108,1549,72,1560,54L1570.9,36L1570.9,180L1560,180C1549.1,180,1527,180,1505,180C1483.6,180,1462,180,1440,180C1418.2,180,1396,180,1375,180C1352.7,180,1331,180,1309,180C1287.3,180,1265,180,1244,180C1221.8,180,1200,180,1178,180C1156.4,180,1135,180,1113,180C1090.9,180,1069,180,1047,180C1025.5,180,1004,180,982,180C960,180,938,180,916,180C894.5,180,873,180,851,180C829.1,180,807,180,785,180C763.6,180,742,180,720,180C698.2,180,676,180,655,180C632.7,180,611,180,589,180C567.3,180,545,180,524,180C501.8,180,480,180,458,180C436.4,180,415,180,393,180C370.9,180,349,180,327,180C305.5,180,284,180,262,180C240,180,218,180,196,180C174.5,180,153,180,131,180C109.1,180,87,180,65,180C43.6,180,22,180,11,180L0,180Z"/></svg>